<?xml version="1.0" encoding="utf-8"?>
<!-- Generator: Adobe Illustrator 21.0.2, SVG Export Plug-In . SVG Version: 6.00 Build 0)  -->
<svg version="1.1" id="Layer_1" xmlns="http://www.w3.org/2000/svg" xmlns:xlink="http://www.w3.org/1999/xlink" x="0px" y="0px"
	 viewBox="0 0 812 587" style="enable-background:new 0 0 812 587;" xml:space="preserve">
<style type="text/css">
	.st0{font-family:'MyriadPro-Regular';}
	.st1{font-size:32px;}
	.st2{fill:none;stroke:#000000;stroke-width:2;stroke-miterlimit:10;}
	.st3{fill:none;stroke:#000000;stroke-miterlimit:10;}
</style>
<image style="overflow:visible;" width="1072" height="1074" xlink:href="../../../Desktop/Screen Shot 2018-08-22 at 1.14.49 pm.png"  transform="matrix(0.5 0 0 0.5 133 46)">
</image>
<text transform="matrix(1 0 0 1 42 46)" class="st0 st1">Date</text>
<text transform="matrix(1 0 0 1 14 165)"><tspan x="0" y="0" class="st0 st1">Timeline</tspan><tspan x="0" y="38.4" class="st0 st1">Start</tspan></text>
<text transform="matrix(1 0 0 1 277 31)" class="st0 st1">Steps Taken Today</text>
<text transform="matrix(1 0 0 1 669 31)"><tspan x="0" y="0" class="st0 st1">VR Game</tspan><tspan x="0" y="38.4" class="st0 st1">Played</tspan></text>
<text transform="matrix(1 0 0 1 669 171)"><tspan x="0" y="0" class="st0 st1">Timeline</tspan><tspan x="0" y="38.4" class="st0 st1">End</tspan></text>
<path class="st2" d="M14,218c7,1,114,0,114,0l71-56"/>
<polyline class="st2" points="586,160 669,224 801,224 "/>
<polyline class="st2" points="796,82 673,82 630,98 "/>
<polyline class="st2" points="514,41 277,41 332,72 "/>
<polyline class="st2" points="42,53 114,53 167,86 "/>
<circle cx="199" cy="162" r="6.9"/>
<circle cx="167" cy="86" r="6.9"/>
<circle cx="332.4" cy="72" r="6.9"/>
<circle cx="630" cy="98" r="6.9"/>
<circle cx="586" cy="160" r="6.9"/>
<rect class="st3" width="812" height="587"/>
</svg>
