<?xml version="1.0" encoding="utf-8"?>
<!-- Generator: Adobe Illustrator 21.0.2, SVG Export Plug-In . SVG Version: 6.00 Build 0)  -->
<svg version="1.1" id="Layer_1" xmlns="http://www.w3.org/2000/svg" xmlns:xlink="http://www.w3.org/1999/xlink" x="0px" y="0px"
	 viewBox="0 0 248.5 311.2" style="enable-background:new 0 0 248.5 311.2;" xml:space="preserve">
<style type="text/css">
	.st0{fill:#EAE2DF;stroke:#000000;stroke-miterlimit:10;}
	.st1{fill:#F2F900;stroke:#000000;stroke-miterlimit:10;}
	.st2{fill:#FFA200;stroke:#000000;stroke-miterlimit:10;}
	.st3{fill:#FF2C2C;}
	.st4{fill:#FFFFFF;}
	.st5{font-family:'HelveticaNeue-Bold';}
	.st6{font-size:10px;}
	.st7{font-size:12px;}
	.st8{fill:#F7EBCE;stroke:#000000;stroke-width:0.25;stroke-miterlimit:10;}
	.st9{fill:#F012BE;}
	.st10{font-family:'HelveticaNeue';}
	.st11{fill:#FF4136;}
	.st12{fill:#FFBF1C;}
	.st13{fill:#7C7C7C;}
</style>
<g>
	<path class="st0" d="M38,290.5c0.1,0.4,0.1,0.7,0.1,0.8c0,1-3.4,9.2-4.1,9.9c-0.7,0.7-6.9,3.5-7.6,4.4s-0.2,4.1,0.2,4.4
		s12.1,1.3,12.8,1.2c0.7-0.2,4.1-4.7,5-4.8c1-0.1,2.2-1.5,2.8-2.4c0.7-0.7,0.5-2.8-0.7-3.4c-0.4-0.3-1.2-3.5-1.1-4.5
		c0.1-1,1.5-2.1,1.5-3.2c0-0.5-0.2-0.9-0.3-1.3L38,290.5z"/>
	<path class="st0" d="M38,290.5l8.6,1c-0.1-0.4-0.3-0.7-0.3-1.2c0-1,1.3-38.3,1.2-41.5s-1.5-9.8-1.5-13c0-0.2,0-0.4,0-0.7l-15.6,1.8
		l0,0c0.2,1.1,0.3,2,0.4,2.5c0.2,2.2,0.5,4.3,0.5,7.3s0.5,7.7,0.7,9.6C32.2,258.2,37.2,285.4,38,290.5"/>
	<path class="st1" d="M24.6,174.2c0,4.4,0,17.1,0,20.3c0,3.6,1.2,16.1,1.4,19.6c0.2,3.5,2.7,13.4,2.7,13.4s1.2,5.7,1.9,9.4l15.6-1.8
		c0.4-5.7,4.5-33.9,4.5-37.5c0-3.8,0-18.4,0-18.4L24.6,174.2z"/>
	<path class="st0" d="M11.4,169.3c0,0-1.2-14.9-1.3-16.6C10,151,7.9,144.5,7.9,141s0.7-6,0.7-6s0.5-1.3,0.9-2.7l13,2.9
		c0.3,2.1,0.6,4.5,0.4,6.1c-0.3,3-4.8,25.1-4.8,25.8L11.4,169.3z"/>
	<path class="st0" d="M18.1,167.2c0,0.8,1.1,1.7,1.3,2.4s1.5,4.3,1.5,5.3s-0.5,1.2-0.4,2.2s1.7,5.2,1.6,6c0,0.8-1.2,2.5-1.6,1.9
		c-0.3-0.5-2.3-7.7-2.8-7.6c-0.5,0.1-1,0.9-1,1.5s-0.2,3.8,0,4.4c0.2,0.7,5,5.7,5.3,6c0.3,0.4,0.9,4.8,0.5,4.9s-8.5-6.7-8.6-7
		c-0.2-0.4,0-0.8,0-1.1s-2.5-3-2.6-3.4c0-0.5,0-13.3,0-13.3L18.1,167.2z"/>
	<path class="st1" d="M22.5,135.3c-0.3-1.9-0.6-3.5-0.6-4.1c0-1.2,2.7-7.9,2.7-10.2c0-1.5,0.4-9.8,0.7-15.1l-13.6-7.5
		c0,3.4-2.2,14.2-2.2,18.8s0.7,10.9,0.7,12.2c0,0.6-0.3,1.8-0.7,2.9L22.5,135.3z"/>
	<path class="st2" d="M11.7,98.4l13.6,7.4c0.1-2.7,0.3-4.7,0.3-4.7L40,68.4c-0.1,0.7-12,6-12.8,6.8c-0.5,0.4-2.3,0.5-7.3,1.8
		s-8.6,9.6-8.6,12.5S11.7,95.1,11.7,98.4"/>
	<path class="st0" d="M25.6,101.2c0,0,3,32.6,3.2,34.2c0.1,1.5,0,2.2-0.3,3c-0.4,0.8-2.6,5.4-2.8,8.8c-0.2,3.4-1,23.5-1,25.8
		c0,0.3,0,0.7,0,1.2l26,5l26-5c0-0.5,0-1,0-1.2c0-2.3-0.8-22.4-1-25.8c-0.2-3.4-2.4-8-2.8-8.8s-0.4-1.5-0.3-3s3.2-34.2,3.2-34.2
		L61.2,68.4l-10.6,0.1L40,68.4L25.6,101.2z"/>
	<path class="st0" d="M63.3,290.5c-0.1,0.4-0.1,0.7-0.1,0.8c0,1,3.4,9.2,4.1,9.9c0.7,0.7,6.9,3.5,7.6,4.4s0.2,4.1-0.2,4.4
		s-12.1,1.3-12.8,1.2s-4.1-4.7-5-4.8s-2.2-1.5-2.8-2.4c-0.7-0.7-0.5-2.8,0.7-3.4c0.4-0.3,1.2-3.5,1.1-4.5c-0.1-1-1.5-2.1-1.5-3.2
		c0-0.5,0.2-0.9,0.3-1.3L63.3,290.5z"/>
	<path class="st0" d="M63.3,290.5l-8.6,1c0.1-0.4,0.3-0.7,0.3-1.2c0-1-1.3-38.3-1.2-41.5s1.5-9.8,1.5-13c0-0.2,0-0.4,0-0.7l15.6,1.8
		l0,0c-0.2,1.1-0.3,2-0.4,2.5c-0.2,2.2-0.5,4.3-0.5,7.3s-0.5,7.7-0.7,9.6C69,258.2,64,285.4,63.3,290.5"/>
	<path class="st1" d="M76.7,174.2c0,4.4,0,17.1,0,20.3c0,3.6-1.2,16.1-1.4,19.6c-0.2,3.5-2.7,13.4-2.7,13.4s-1.2,5.7-1.9,9.4
		l-15.6-1.8c-0.4-5.7-4.5-33.9-4.5-37.5c0-3.8,0-18.4,0-18.4L76.7,174.2z"/>
	<path class="st0" d="M89.9,169.3c0,0,1.2-14.9,1.3-16.6c0.1-1.7,2.2-8.2,2.2-11.7s-0.7-6-0.7-6s-0.5-1.3-0.9-2.7l-13,2.9
		c-0.3,2.1-0.6,4.5-0.4,6.1c0.3,3,4.8,25.1,4.8,25.8L89.9,169.3z"/>
	<path class="st0" d="M83.2,167.2c0,0.8-1.1,1.7-1.3,2.4s-1.5,4.3-1.5,5.3s0.5,1.2,0.4,2.2c0,1-1.7,5.2-1.6,6c0,0.8,1.2,2.5,1.6,1.9
		c0.3-0.5,2.3-7.7,2.8-7.6c0.5,0.1,1,0.9,1,1.5s0.2,3.8,0,4.4c-0.2,0.7-5,5.7-5.3,6c-0.3,0.4-0.9,4.8-0.5,4.9s8.5-6.7,8.6-7
		s0-0.8,0-1.1s2.5-3,2.6-3.4c0-0.5,0-13.3,0-13.3L83.2,167.2z"/>
	<path class="st1" d="M78.8,135.3c0.3-1.9,0.6-3.5,0.6-4.1c0-1.2-2.7-7.9-2.7-10.2c0-1.5-0.4-9.8-0.7-15.1l13.6-7.4
		c0,3.4,2.2,14.2,2.2,18.8s-0.7,10.9-0.7,12.2c0,0.6,0.3,1.8,0.7,2.9L78.8,135.3z"/>
	<path class="st0" d="M89.5,98.4l-13.6,7.4c-0.1-2.7-0.3-4.7-0.3-4.7L61.2,68.4c0.1,0.7,12,6,12.8,6.8c0.5,0.4,2.3,0.5,7.3,1.8
		s8.6,9.6,8.6,12.5S89.5,95.1,89.5,98.4"/>
	<path class="st0" d="M40,68.4c0.1-0.7,0.7-8.7,0.5-9.2s-1.5-2.9-2.1-5s-0.6-5.7-0.8-6.1c-0.1-0.3-1.8-0.4-2.2-0.9
		c-1.2-2.6-0.7-5.8,0-7.8c0.3-0.5,0.8-0.6,1.4-0.6c0.3,0.1,0.6,0.3,0.9,0.4c0,0,0.1-6,0.9-8.6c0.8-2.6,1.4-7.3,12-7.3
		s11.3,4.7,12,7.3c0.8,2.6,0.9,8.6,0.9,8.6c0.3-0.1,0.6-0.3,0.9-0.4c0.6,0,1,0.2,1.4,0.6c0.7,2,1.2,5.2,0.1,7.8
		c-0.5,0.5-2.1,0.7-2.2,0.9c-0.2,0.5-0.2,4-0.8,6.1s-1.9,4.5-2.1,5c-0.2,0.5,0.4,8.5,0.5,9.2H40z"/>
	<path class="st3" d="M50.6,94.1c-0.7-1.6-4.2-3.9-6.2-0.9c-1.3,2.6-0.8,6.3,6.2,11.8c7-5.5,7.5-9.2,6.2-11.8
		C54.8,90.2,51.3,92.5,50.6,94.1z"/>
	<g>
		<path class="st4" d="M11.1,17.9c-0.1,0-0.1,0-0.2,0H3.2c-1.3,0-2.4-1.1-2.4-2.4V3c0-1.3,1.1-2.4,2.4-2.4H58c1.3,0,2.4,1.1,2.4,2.4
			v12.5c-0.1,1.3-1.2,2.4-2.5,2.4H25.7c-0.2,0-0.3,0.1-0.4,0.2s-0.1,0.3-0.1,0.5l1.9,5.3L11.1,17.9z"/>
		<path d="M58,1.1c1,0,1.9,0.9,1.9,1.9v12.5c-0.1,1.1-1,1.9-2,1.9H25.7c-0.3,0-0.6,0.2-0.8,0.4c-0.2,0.3-0.2,0.6-0.1,0.9l1.6,4.3
			l-15.1-5.6c-0.1,0-0.2-0.1-0.3-0.1H3.2c-1,0-1.9-0.9-1.9-1.9V3c0-1,0.9-1.9,1.9-1.9H58 M58,0.1H3.2C1.6,0.1,0.3,1.4,0.3,3v12.5
			c0,1.6,1.3,2.9,2.9,2.9h7.7L28,24.7l-2.3-6.3h32.2c1.6,0,2.9-1.3,3-2.9V3C60.9,1.4,59.6,0.1,58,0.1L58,0.1z"/>
	</g>
</g>
<text transform="matrix(1 0 0 1 29.6063 115.8641)" class="st5 st6">122 BPM</text>
<text transform="matrix(1 0 0 1 9.1927 13.4771)" class="st5 st6">120 BPM</text>
<text transform="matrix(1 0 0 1 100.3223 42.0535)" class="st5 st7">Steps</text>
<text transform="matrix(1 0 0 1 100.3223 85.2535)" class="st5 st7">VR games played</text>
<text transform="matrix(1 0 0 1 100.3223 99.6535)" class="st8 st5 st7">Holopoint</text>
<text transform="matrix(1 0 0 1 156.1224 99.6535)" class="st9 st10 st7"> </text>
<text transform="matrix(1 0 0 1 159.4224 99.6535)" class="st10 st7">24:59</text>
<text transform="matrix(1 0 0 1 100.3223 142.8535)" class="st5 st7">Workout intensity</text>
<text transform="matrix(1 0 0 1 100.3223 157.2535)" class="st11 st10 st7">Vigorous </text>
<text transform="matrix(1 0 0 1 151.0224 157.2535)" class="st10 st7">activity - 0:00</text>
<text transform="matrix(1 0 0 1 100.3223 171.6535)" class="st12 st10 st7">Moderate</text>
<text transform="matrix(1 0 0 1 151.9224 171.6535)" class="st10 st7"> activity - 1:18</text>
<text transform="matrix(1 0 0 1 100.3223 214.8535)" class="st5 st7">VR games gave you</text>
<text transform="matrix(1 0 0 1 100.3223 229.2535)" class="st13 st5 st7">1:18</text>
<text transform="matrix(1 0 0 1 100.3223 243.6535)" class="st10 st7">towards the recommended</text>
<text transform="matrix(1 0 0 1 100.3223 258.0535)" class="st10 st7">goal of 30 active minutes</text>
<text transform="matrix(1 0 0 1 100.3223 272.4535)" class="st10 st7">per day</text>
</svg>
