<?xml version="1.0" encoding="utf-8"?>
<!-- Generator: Adobe Illustrator 21.0.2, SVG Export Plug-In . SVG Version: 6.00 Build 0)  -->
<svg version="1.1" id="Layer_1" xmlns="http://www.w3.org/2000/svg" xmlns:xlink="http://www.w3.org/1999/xlink" x="0px" y="0px"
	 viewBox="0 0 268 320" style="enable-background:new 0 0 268 320;" xml:space="preserve">
<style type="text/css">
	.st0{fill:#EAE2DF;stroke:#000000;stroke-miterlimit:10;}
	.st1{fill:#FFA200;stroke:#000000;stroke-miterlimit:10;}
	.st2{fill:#F2F900;stroke:#000000;stroke-miterlimit:10;}
	.st3{fill:#FF6100;stroke:#000000;stroke-miterlimit:10;}
	.st4{fill:#FE0000;stroke:#000000;stroke-miterlimit:10;}
	.st5{fill:#FF2C2C;}
	.st6{fill:#FFFFFF;stroke:#000000;stroke-linejoin:round;stroke-miterlimit:10;}
	.st7{font-family:'HelveticaNeue-Bold';}
	.st8{font-size:10px;}
	.st9{font-size:12px;}
	.st10{fill:#3D9970;}
	.st11{font-family:'HelveticaNeue';}
	.st12{fill:#FF4136;}
	.st13{fill:#FFBF1C;}
	.st14{fill:#0074D9;}
</style>
<g>
	<path class="st0" d="M41.9,295.1c0.1,0.4,0.1,0.7,0.1,0.8c0,1-3.4,9.2-4.1,9.9c-0.7,0.7-6.9,3.5-7.6,4.4s-0.2,4.1,0.2,4.4
		s12.1,1.3,12.8,1.2s4.1-4.7,5-4.8s2.2-1.5,2.8-2.4c0.7-0.7,0.5-2.8-0.7-3.4c-0.4-0.3-1.2-3.5-1.1-4.5c0.1-1,1.5-2.1,1.5-3.2
		c0-0.5-0.2-0.9-0.3-1.3L41.9,295.1z"/>
	<path class="st0" d="M41.9,295.1l8.6,1c-0.1-0.4-0.3-0.7-0.3-1.2c0-1,1.3-38.3,1.2-41.5s-1.5-9.8-1.5-13c0-0.2,0-0.4,0-0.7
		l-15.6,1.8l0,0c0.2,1.1,0.3,2,0.4,2.5c0.2,2.2,0.5,4.3,0.5,7.3s0.5,7.7,0.7,9.6C36.1,262.8,41.1,290,41.9,295.1"/>
	<path class="st1" d="M28.5,178.8c0,4.4,0,17.1,0,20.3c0,3.6,1.2,16.1,1.4,19.6c0.2,3.5,2.7,13.4,2.7,13.4s1.2,5.7,1.9,9.4l15.6-1.8
		c0.4-5.7,4.5-33.9,4.5-37.5c0-3.8,0-18.4,0-18.4L28.5,178.8z"/>
	<path class="st2" d="M15.3,173.9c0,0-1.2-14.9-1.3-16.6c-0.1-1.7-2.2-8.2-2.2-11.7s0.7-6,0.7-6s0.5-1.3,0.9-2.7l13,2.9
		c0.3,2.1,0.6,4.5,0.4,6.1c-0.3,3-4.8,25.1-4.8,25.8L15.3,173.9z"/>
	<path class="st0" d="M22,171.8c0,0.8,1.1,1.7,1.3,2.4s1.5,4.3,1.5,5.3s-0.5,1.2-0.4,2.2c0,1,1.7,5.2,1.6,6c0,0.8-1.2,2.5-1.6,1.9
		c-0.3-0.5-2.3-7.7-2.8-7.6c-0.5,0.1-1,0.9-1,1.5s-0.2,3.8,0,4.4c0.2,0.7,5,5.7,5.3,6c0.3,0.4,0.9,4.8,0.5,4.9s-8.5-6.7-8.6-7
		s0-0.8,0-1.1s-2.5-3-2.6-3.4c0-0.5,0-13.3,0-13.3L22,171.8z"/>
	<path class="st3" d="M26.4,139.9c-0.3-1.9-0.6-3.5-0.6-4.1c0-1.2,2.7-7.9,2.7-10.2c0-1.5,0.4-9.8,0.7-15.1L15.6,103
		c0,3.4-2.2,14.2-2.2,18.8S14,132.7,14,134c0,0.6-0.3,1.8-0.7,2.9L26.4,139.9z"/>
	<path class="st4" d="M15.6,103l13.6,7.4c0.1-2.7,0.3-4.7,0.3-4.7L43.9,73c-0.1,0.7-12,6-12.8,6.8c-0.5,0.4-2.3,0.5-7.3,1.8
		s-8.6,9.6-8.6,12.5S15.6,99.7,15.6,103"/>
	<path class="st0" d="M29.5,105.8c0,0,3,32.6,3.2,34.2c0.1,1.5,0,2.2-0.3,3c-0.4,0.8-2.6,5.4-2.8,8.8c-0.2,3.4-1,23.5-1,25.8
		c0,0.3,0,0.7,0,1.2l26,5l26-5c0-0.5,0-1,0-1.2c0-2.3-0.8-22.4-1-25.8c-0.2-3.4-2.4-8-2.8-8.8s-0.4-1.5-0.3-3s3.2-34.2,3.2-34.2
		L65.1,73l-10.6,0.1L43.9,73L29.5,105.8z"/>
	<path class="st0" d="M67.1,295.1c-0.1,0.4-0.1,0.7-0.1,0.8c0,1,3.4,9.2,4.1,9.9c0.7,0.7,6.9,3.5,7.6,4.4s0.2,4.1-0.2,4.4
		s-12.1,1.3-12.8,1.2c-0.7-0.2-4.1-4.7-5-4.8c-1-0.1-2.2-1.5-2.8-2.4c-0.7-0.7-0.5-2.8,0.7-3.4c0.4-0.3,1.2-3.5,1.1-4.5
		c-0.1-1-1.5-2.1-1.5-3.2c0-0.5,0.2-0.9,0.3-1.3L67.1,295.1z"/>
	<path class="st0" d="M67.1,295.1l-8.6,1c0.1-0.4,0.3-0.7,0.3-1.2c0-1-1.3-38.3-1.2-41.5c0.1-3.2,1.5-9.8,1.5-13c0-0.2,0-0.4,0-0.7
		l15.6,1.8l0,0c-0.2,1.1-0.3,2-0.4,2.5c-0.2,2.2-0.5,4.3-0.5,7.3s-0.5,7.7-0.7,9.6S67.9,290,67.1,295.1"/>
	<path class="st1" d="M80.5,178.8c0,4.4,0,17.1,0,20.3c0,3.6-1.2,16.1-1.4,19.6c-0.2,3.5-2.7,13.4-2.7,13.4s-1.2,5.7-1.9,9.4
		L59,239.7c-0.4-5.7-4.5-33.9-4.5-37.5c0-3.8,0-18.4,0-18.4L80.5,178.8z"/>
	<path class="st2" d="M93.8,173.9c0,0,1.2-14.9,1.3-16.6c0.1-1.7,2.2-8.2,2.2-11.7s-0.7-6-0.7-6s-0.5-1.3-0.9-2.7l-13,2.9
		c-0.3,2.1-0.6,4.5-0.4,6.1c0.3,3,4.8,25.1,4.8,25.8L93.8,173.9z"/>
	<path class="st0" d="M87,171.8c0,0.8-1.1,1.7-1.3,2.4s-1.5,4.3-1.5,5.3s0.5,1.2,0.4,2.2c0,1-1.7,5.2-1.6,6c0,0.8,1.2,2.5,1.6,1.9
		s2.3-7.7,2.8-7.6c0.5,0.1,1,0.9,1,1.5s0.2,3.8,0,4.4c-0.2,0.7-5,5.7-5.3,6c-0.3,0.4-0.9,4.8-0.5,4.9s8.5-6.7,8.6-7
		c0.2-0.4,0-0.8,0-1.1s2.5-3,2.6-3.4c0-0.5,0-13.3,0-13.3L87,171.8z"/>
	<path class="st2" d="M82.6,139.9c0.3-1.9,0.6-3.5,0.6-4.1c0-1.2-2.7-7.9-2.7-10.2c0-1.5-0.4-9.8-0.7-15.1l13.6-7.4
		c0,3.4,2.2,14.2,2.2,18.8S95,132.7,95,134c0,0.6,0.3,1.8,0.7,2.9L82.6,139.9z"/>
	<path class="st3" d="M93.4,103l-13.6,7.4c-0.1-2.7-0.3-4.7-0.3-4.7L65.1,73c0.1,0.7,12,6,12.8,6.8c0.5,0.4,2.3,0.5,7.3,1.8
		s8.6,9.6,8.6,12.5S93.4,99.7,93.4,103"/>
	<path class="st0" d="M43.9,73c0.1-0.7,0.7-8.7,0.5-9.2c-0.2-0.5-1.5-2.9-2.1-5s-0.6-5.7-0.8-6.1c-0.1-0.3-1.8-0.4-2.2-0.9
		c-1.3-2.6-0.8-5.8,0-7.8c0.3-0.5,0.8-0.6,1.4-0.6c0.3,0.1,0.6,0.3,0.9,0.4c0,0,0.1-6,0.9-8.6c0.8-2.6,1.4-7.3,12-7.3
		s11.3,4.7,12,7.3c0.8,2.6,0.9,8.6,0.9,8.6c0.3-0.1,0.6-0.3,0.9-0.4c0.6,0,1,0.2,1.4,0.6c0.7,2,1.2,5.2,0.1,7.8
		c-0.5,0.5-2.1,0.7-2.2,0.9c-0.2,0.5-0.2,4-0.8,6.1c-0.6,2.1-1.9,4.5-2.1,5c-0.2,0.5,0.4,8.5,0.5,9.2H43.9z"/>
	<path class="st5" d="M54.5,98.7c-0.7-1.6-4.2-3.9-6.2-0.9c-1.3,2.6-0.8,6.3,6.2,11.8c7-5.5,7.5-9.2,6.2-11.8
		C58.7,94.8,55.2,97.1,54.5,98.7z"/>
	<path class="st6" d="M61.8,23H29.6l2.3,6.3L14.8,23H7c-1.6,0-2.9-1.3-2.9-2.9V7.6C4.1,6,5.4,4.7,7,4.7h54.8c1.6,0,2.9,1.3,2.9,2.9
		v12.5C64.7,21.7,63.4,23,61.8,23z"/>
</g>
<text transform="matrix(1 0 0 1 32.79 120.4606)" class="st7 st8">129 BPM</text>
<text transform="matrix(1 0 0 1 12.3763 18.0736)" class="st7 st8">130 BPM</text>
<text transform="matrix(1 0 0 1 104.1 46.65)"><tspan x="0" y="0" class="st7 st9">Steps</tspan><tspan x="0" y="43.2" class="st7 st9">VR games played</tspan><tspan x="0" y="57.6" class="st10 st7 st9">Longbow </tspan><tspan x="56.7" y="57.6" class="st11 st9">31:7</tspan><tspan x="0" y="100.8" class="st7 st9">Workout intensity</tspan><tspan x="0" y="115.2" class="st12 st11 st9">Vigorous </tspan><tspan x="50.7" y="115.2" class="st11 st9">activity: 0:0</tspan><tspan x="0" y="129.6" class="st13 st11 st9">Moderate</tspan><tspan x="51.6" y="129.6" class="st11 st9"> activity: 30:50</tspan><tspan x="0" y="172.8" class="st7 st9">VR games gave you</tspan><tspan x="0" y="187.2" class="st14 st7 st9">30:50</tspan><tspan x="0" y="201.6" class="st11 st9">towards the recommended</tspan><tspan x="0" y="216" class="st11 st9">goal of 30 active minutes</tspan><tspan x="0" y="230.4" class="st11 st9">per day</tspan></text>
</svg>
