<?xml version="1.0" encoding="utf-8"?>
<!-- Generator: Adobe Illustrator 21.0.2, SVG Export Plug-In . SVG Version: 6.00 Build 0)  -->
<svg version="1.1" id="Layer_1" xmlns="http://www.w3.org/2000/svg" xmlns:xlink="http://www.w3.org/1999/xlink" x="0px" y="0px"
	 viewBox="0 0 250.5 311.1" style="enable-background:new 0 0 250.5 311.1;" xml:space="preserve">
<style type="text/css">
	.st0{fill:#EAE2DF;stroke:#000000;stroke-miterlimit:10;}
	.st1{fill:#FFA200;stroke:#000000;stroke-miterlimit:10;}
	.st2{fill:#F2F900;stroke:#000000;stroke-miterlimit:10;}
	.st3{fill:#FF6100;stroke:#000000;stroke-miterlimit:10;}
	.st4{fill:#FE0000;stroke:#000000;stroke-miterlimit:10;}
	.st5{fill:#FF2C2C;}
	.st6{fill:#FFFFFF;}
	.st7{font-family:'HelveticaNeue-Bold';}
	.st8{font-size:10px;}
	.st9{font-size:12px;}
	.st10{fill:#ED956F;stroke:#000000;stroke-width:0.25;stroke-miterlimit:10;}
	.st11{font-family:'HelveticaNeue';}
	.st12{fill:#FF4136;}
	.st13{fill:#FFBF1C;}
	.st14{fill:#0074D9;}
</style>
<g>
	<path class="st0" d="M37.8,290.4c0.1,0.4,0.1,0.7,0.1,0.8c0,1-3.4,9.2-4.1,9.9c-0.7,0.7-6.9,3.5-7.6,4.4s-0.2,4.1,0.2,4.4
		s12.1,1.3,12.8,1.2s4.1-4.7,5-4.8s2.2-1.5,2.8-2.4c0.7-0.7,0.5-2.8-0.7-3.4c-0.4-0.3-1.2-3.5-1.1-4.5c0.1-1,1.5-2.1,1.5-3.2
		c0-0.5-0.2-0.9-0.3-1.3L37.8,290.4z"/>
	<path class="st0" d="M37.8,290.4l8.6,1c-0.1-0.4-0.3-0.7-0.3-1.2c0-1,1.3-38.3,1.2-41.5s-1.5-9.8-1.5-13c0-0.2,0-0.4,0-0.7
		l-15.6,1.8l0,0c0.2,1.1,0.3,2,0.4,2.5c0.2,2.2,0.5,4.3,0.5,7.3s0.5,7.7,0.7,9.6C32,258.1,37,285.3,37.8,290.4"/>
	<path class="st1" d="M24.4,174.1c0,4.4,0,17.1,0,20.3c0,3.6,1.2,16.1,1.4,19.6c0.2,3.5,2.7,13.4,2.7,13.4s1.2,5.7,1.9,9.4L46,235
		c0.4-5.7,4.5-33.9,4.5-37.5c0-3.8,0-18.4,0-18.4L24.4,174.1z"/>
	<path class="st2" d="M11.2,169.2c0,0-1.2-14.9-1.3-16.6c-0.1-1.7-2.2-8.2-2.2-11.7s0.7-6,0.7-6s0.5-1.3,0.9-2.7l13,2.9
		c0.3,2.1,0.6,4.5,0.4,6.1c-0.3,3-4.8,25.1-4.8,25.8L11.2,169.2z"/>
	<path class="st0" d="M17.9,167.1c0,0.8,1.1,1.7,1.3,2.4s1.5,4.3,1.5,5.3s-0.5,1.2-0.4,2.2c0,1,1.7,5.2,1.6,6c0,0.8-1.2,2.5-1.6,1.9
		c-0.3-0.5-2.3-7.7-2.8-7.6c-0.5,0.1-1,0.9-1,1.5s-0.2,3.8,0,4.4c0.2,0.7,5,5.7,5.3,6c0.3,0.4,0.9,4.8,0.5,4.9s-8.5-6.7-8.6-7
		s0-0.8,0-1.1s-2.5-3-2.6-3.4c0-0.5,0-13.3,0-13.3L17.9,167.1z"/>
	<path class="st3" d="M22.3,135.2c-0.3-1.9-0.6-3.5-0.6-4.1c0-1.2,2.7-7.9,2.7-10.2c0-1.5,0.4-9.8,0.7-15.1l-13.6-7.5
		c0,3.4-2.2,14.2-2.2,18.8s0.6,10.9,0.6,12.2c0,0.6-0.3,1.8-0.7,2.9L22.3,135.2z"/>
	<path class="st4" d="M11.5,98.3l13.6,7.4c0.1-2.7,0.3-4.7,0.3-4.7l14.4-32.7c-0.1,0.7-12,6-12.8,6.8c-0.5,0.4-2.3,0.5-7.3,1.8
		s-8.6,9.6-8.6,12.5S11.5,95,11.5,98.3"/>
	<path class="st0" d="M25.4,101.1c0,0,3,32.6,3.2,34.2c0.1,1.5,0,2.2-0.3,3c-0.4,0.8-2.6,5.4-2.8,8.8c-0.2,3.4-1,23.5-1,25.8
		c0,0.3,0,0.7,0,1.2l26,5l26-5c0-0.5,0-1,0-1.2c0-2.3-0.8-22.4-1-25.8c-0.2-3.4-2.4-8-2.8-8.8s-0.4-1.5-0.3-3s3.2-34.2,3.2-34.2
		L61,68.3l-10.6,0.1l-10.6-0.1L25.4,101.1z"/>
	<path class="st0" d="M63,290.4c-0.1,0.4-0.1,0.7-0.1,0.8c0,1,3.4,9.2,4.1,9.9c0.7,0.7,6.9,3.5,7.6,4.4s0.2,4.1-0.2,4.4
		s-12.1,1.3-12.8,1.2c-0.7-0.2-4.1-4.7-5-4.8c-1-0.1-2.2-1.5-2.8-2.4c-0.7-0.7-0.5-2.8,0.7-3.4c0.4-0.3,1.2-3.5,1.1-4.5
		c-0.1-1-1.5-2.1-1.5-3.2c0-0.5,0.2-0.9,0.3-1.3L63,290.4z"/>
	<path class="st0" d="M63,290.4l-8.6,1c0.1-0.4,0.3-0.7,0.3-1.2c0-1-1.3-38.3-1.2-41.5s1.5-9.8,1.5-13c0-0.2,0-0.4,0-0.7l15.6,1.8
		l0,0c-0.2,1.1-0.3,2-0.4,2.5c-0.2,2.2-0.5,4.3-0.5,7.3s-0.5,7.7-0.7,9.6C68.8,258.1,63.8,285.3,63,290.4"/>
	<path class="st1" d="M76.4,174.1c0,4.4,0,17.1,0,20.3c0,3.6-1.2,16.1-1.4,19.6c-0.2,3.5-2.7,13.4-2.7,13.4s-1.2,5.7-1.9,9.4
		L54.9,235c-0.4-5.7-4.5-33.9-4.5-37.5c0-3.8,0-18.4,0-18.4L76.4,174.1z"/>
	<path class="st2" d="M89.7,169.2c0,0,1.2-14.9,1.3-16.6c0.1-1.7,2.2-8.2,2.2-11.7s-0.7-6-0.7-6s-0.5-1.3-0.9-2.7l-13,2.9
		c-0.3,2.1-0.6,4.5-0.4,6.1c0.3,3,4.8,25.1,4.8,25.8L89.7,169.2z"/>
	<path class="st0" d="M82.9,167.1c0,0.8-1.1,1.7-1.3,2.4s-1.5,4.3-1.5,5.3s0.5,1.2,0.4,2.2c0,1-1.7,5.2-1.6,6c0,0.8,1.2,2.5,1.6,1.9
		s2.3-7.7,2.8-7.6c0.5,0.1,1,0.9,1,1.5s0.2,3.8,0,4.4c-0.2,0.7-5,5.7-5.3,6c-0.3,0.4-0.9,4.8-0.5,4.9s8.5-6.7,8.6-7
		c0.2-0.4,0-0.8,0-1.1s2.5-3,2.6-3.4c0-0.5,0-13.3,0-13.3L82.9,167.1z"/>
	<path class="st2" d="M78.5,135.2c0.3-1.9,0.6-3.5,0.6-4.1c0-1.2-2.7-7.9-2.7-10.2c0-1.5-0.4-9.8-0.7-15.1l13.6-7.4
		c0,3.4,2.2,14.2,2.2,18.8s-0.6,10.8-0.6,12.1c0,0.6,0.3,1.8,0.7,2.9L78.5,135.2z"/>
	<path class="st3" d="M89.3,98.3l-13.6,7.4c-0.1-2.7-0.3-4.7-0.3-4.7L61,68.3c0.1,0.7,12,6,12.8,6.8c0.5,0.4,2.3,0.5,7.3,1.8
		s8.6,9.6,8.6,12.5S89.3,95,89.3,98.3"/>
	<path class="st0" d="M39.8,68.3c0.1-0.7,0.7-8.7,0.5-9.2s-1.5-2.9-2.1-5s-0.6-5.7-0.8-6.1c-0.1-0.3-1.8-0.4-2.2-0.9
		c-1.3-2.6-0.8-5.8,0-7.8c0.3-0.5,0.8-0.6,1.4-0.6c0.3,0.1,0.6,0.3,0.9,0.4c0,0,0.1-6,0.9-8.6c0.8-2.6,1.4-7.3,12-7.3
		s11.3,4.7,12,7.3c0.8,2.6,0.9,8.6,0.9,8.6c0.3-0.1,0.6-0.3,0.9-0.4c0.6,0,1,0.2,1.4,0.6c0.7,2,1.2,5.2,0.1,7.8
		c-0.5,0.5-2.1,0.7-2.2,0.9c-0.2,0.5-0.2,4-0.8,6.1s-1.9,4.5-2.1,5c-0.2,0.5,0.4,8.5,0.5,9.2H39.8z"/>
	<path class="st5" d="M50.4,94c-0.7-1.6-4.2-3.9-6.2-0.9c-1.3,2.6-0.8,6.3,6.2,11.8c7-5.5,7.5-9.2,6.2-11.8
		C54.6,90.1,51.1,92.4,50.4,94z"/>
	<g>
		<path class="st6" d="M10.9,17.8c-0.1,0-0.1,0-0.2,0H2.9c-1.3,0-2.4-1.1-2.4-2.4V2.9c0-1.3,1.1-2.4,2.4-2.4h54.8
			c1.3,0,2.4,1.1,2.4,2.4v12.5c0,1.3-1.1,2.4-2.4,2.4H25.5c-0.2,0-0.3,0.1-0.4,0.2S25,18.3,25,18.5l1.9,5.3L10.9,17.8z"/>
		<path d="M57.7,1c1,0,1.9,0.9,1.9,1.9v12.5c0,1-0.9,1.9-1.9,1.9H25.5c-0.3,0-0.6,0.2-0.8,0.4c-0.2,0.3-0.2,0.6-0.1,0.9l1.6,4.3
			L11,17.4c-0.1,0-0.2-0.1-0.3-0.1H2.9c-1,0-1.9-0.9-1.9-1.9V2.9C1,1.9,1.9,1,2.9,1H57.7 M57.7,0H2.9C1.3,0,0,1.3,0,2.9v12.5
			c0,1.6,1.3,2.9,2.9,2.9h7.8l17.1,6.3l-2.3-6.3h32.2c1.6,0,2.9-1.3,2.9-2.9V2.9C60.6,1.3,59.3,0,57.7,0L57.7,0z"/>
	</g>
</g>
<text transform="matrix(1 0 0 1 28.69 115.7606)" class="st7 st8">129 BPM</text>
<text transform="matrix(1 0 0 1 8.2763 13.3736)" class="st7 st8">130 BPM</text>
<text transform="matrix(1 0 0 1 100 41.95)" class="st7 st9">Steps</text>
<text transform="matrix(1 0 0 1 100 85.15)" class="st7 st9">VR games played</text>
<text transform="matrix(1 0 0 1 100 99.55)" class="st10 st7 st9">Longbow </text>
<text transform="matrix(1 0 0 1 156.7 99.55)" class="st11 st9">31:47</text>
<text transform="matrix(1 0 0 1 100 142.75)" class="st7 st9">Workout intensity</text>
<text transform="matrix(1 0 0 1 100 157.15)" class="st12 st11 st9">Vigorous </text>
<text transform="matrix(1 0 0 1 150.7 157.15)" class="st11 st9">activity: 0:0</text>
<text transform="matrix(1 0 0 1 100 171.55)" class="st13 st11 st9">Moderate</text>
<text transform="matrix(1 0 0 1 151.6 171.55)" class="st11 st9"> activity: 30:50</text>
<text transform="matrix(1 0 0 1 100 214.75)" class="st7 st9">VR games gave you</text>
<text transform="matrix(1 0 0 1 100 229.15)" class="st14 st7 st9">30:50</text>
<text transform="matrix(1 0 0 1 100 243.55)" class="st11 st9">towards the recommended</text>
<text transform="matrix(1 0 0 1 100 257.95)" class="st11 st9">goal of 30 active minutes</text>
<text transform="matrix(1 0 0 1 100 272.35)" class="st11 st9">per day</text>
</svg>
