<?xml version="1.0" encoding="utf-8"?>
<!-- Generator: Adobe Illustrator 21.0.2, SVG Export Plug-In . SVG Version: 6.00 Build 0)  -->
<svg version="1.1" xmlns="http://www.w3.org/2000/svg" xmlns:xlink="http://www.w3.org/1999/xlink" x="0px" y="0px"
	 viewBox="0 0 249.6 311.2" style="enable-background:new 0 0 249.6 311.2;" xml:space="preserve">
<style type="text/css">
	.st0{fill:#EAE2DF;stroke:#000000;stroke-miterlimit:10;}
	.st1{fill:#FF2C2C;}
	.st2{font-family:'HelveticaNeue-Bold';}
	.st3{font-size:12px;}
	.st4{fill:none;stroke:#FFFFFF;stroke-linejoin:round;stroke-miterlimit:10;}
	.st5{fill:#FFFFFF;}
	.st6{font-size:10px;}
	.st7{font-family:'HelveticaNeue';}
</style>
<g id="Layer_1">
	<g>
		<path class="st0" d="M37.8,290.5c0.1,0.4,0.1,0.7,0.1,0.8c0,1-3.4,9.2-4.1,9.9c-0.7,0.7-6.9,3.5-7.6,4.4s-0.2,4.1,0.2,4.4
			s12.1,1.3,12.8,1.2s4.1-4.7,5-4.8s2.2-1.5,2.8-2.4c0.7-0.7,0.5-2.8-0.7-3.4c-0.4-0.3-1.2-3.5-1.1-4.5c0.1-1,1.5-2.1,1.5-3.2
			c0-0.5-0.2-0.9-0.3-1.3L37.8,290.5z"/>
		<path class="st0" d="M37.8,290.5l8.6,1c-0.1-0.4-0.3-0.7-0.3-1.2c0-1,1.3-38.3,1.2-41.5s-1.5-9.8-1.5-13c0-0.2,0-0.4,0-0.7
			l-15.6,1.8l0,0c0.2,1.1,0.3,2,0.4,2.5c0.2,2.2,0.5,4.3,0.5,7.3s0.5,7.7,0.7,9.6C32.1,258.2,37.1,285.4,37.8,290.5"/>
		<path class="st0" d="M24.4,174.2c0,4.4,0,17.1,0,20.3c0,3.6,1.2,16.1,1.4,19.6c0.2,3.5,2.7,13.4,2.7,13.4s1.2,5.7,1.9,9.4
			l15.6-1.8c0.4-5.7,4.5-33.9,4.5-37.5c0-3.8,0-18.4,0-18.4L24.4,174.2z"/>
		<path class="st0" d="M11.2,169.3c0,0-1.2-14.9-1.3-16.6c-0.1-1.7-2.2-8.2-2.2-11.7s0.7-6,0.7-6s0.5-1.3,0.9-2.7l13,2.9
			c0.3,2.1,0.6,4.5,0.4,6.1c-0.3,3-4.8,25.1-4.8,25.8L11.2,169.3z"/>
		<path class="st0" d="M17.9,167.2c0,0.8,1.1,1.7,1.3,2.4s1.5,4.3,1.5,5.3s-0.5,1.2-0.4,2.2s1.7,5.2,1.6,6c0,0.8-1.2,2.5-1.6,1.9
			c-0.3-0.5-2.3-7.7-2.8-7.6c-0.5,0.1-1,0.9-1,1.5s-0.2,3.8,0,4.4c0.2,0.7,5,5.7,5.3,6c0.3,0.4,0.9,4.8,0.5,4.9s-8.5-6.7-8.6-7
			c-0.2-0.4,0-0.8,0-1.1s-2.5-3-2.6-3.4c0-0.5,0-13.3,0-13.3L17.9,167.2z"/>
		<path class="st0" d="M22.3,135.3c-0.3-1.9-0.6-3.5-0.6-4.1c0-1.2,2.7-7.9,2.7-10.2c0-1.5,0.4-9.8,0.7-15.1l-13.5-7.5
			c0,3.4-2.2,14.2-2.2,18.8s0.7,10.9,0.7,12.2c0,0.6-0.3,1.8-0.7,2.9L22.3,135.3z"/>
		<path class="st0" d="M11.6,98.4l13.6,7.4c0.1-2.7,0.3-4.7,0.3-4.7l14.4-32.7c-0.1,0.7-12,6-12.8,6.8c-0.5,0.4-2.3,0.5-7.3,1.8
			s-8.6,9.6-8.6,12.5S11.6,95.1,11.6,98.4"/>
		<path class="st0" d="M25.4,101.2c0,0,3,32.6,3.2,34.2c0.1,1.5,0,2.2-0.3,3c-0.4,0.8-2.6,5.4-2.8,8.8c-0.2,3.4-1,23.5-1,25.8
			c0,0.3,0,0.7,0,1.2l26,5l26-5c0-0.5,0-1,0-1.2c0-2.3-0.8-22.4-1-25.8c-0.2-3.4-2.4-8-2.8-8.8s-0.4-1.5-0.3-3s3.2-34.2,3.2-34.2
			L61.1,68.4l-10.6,0.1l-10.6-0.1L25.4,101.2z"/>
		<path class="st0" d="M63.1,290.5c-0.1,0.4-0.1,0.7-0.1,0.8c0,1,3.4,9.2,4.1,9.9c0.7,0.7,6.9,3.5,7.6,4.4s0.2,4.1-0.2,4.4
			s-12.1,1.3-12.8,1.2s-4.1-4.7-5-4.8c-1-0.1-2.2-1.5-2.8-2.4c-0.7-0.7-0.5-2.8,0.7-3.4c0.4-0.3,1.2-3.5,1.1-4.5
			c-0.1-1-1.5-2.1-1.5-3.2c0-0.5,0.2-0.9,0.3-1.3L63.1,290.5z"/>
		<path class="st0" d="M63.1,290.5l-8.6,1c0.1-0.4,0.3-0.7,0.3-1.2c0-1-1.3-38.3-1.2-41.5c0.1-3.2,1.5-9.8,1.5-13c0-0.2,0-0.4,0-0.7
			l15.6,1.8l0,0c-0.2,1.1-0.3,2-0.4,2.5c-0.2,2.2-0.5,4.3-0.5,7.3s-0.5,7.7-0.7,9.6C68.9,258.2,63.9,285.4,63.1,290.5"/>
		<path class="st0" d="M76.5,174.2c0,4.4,0,17.1,0,20.3c0,3.6-1.2,16.1-1.4,19.6c-0.2,3.5-2.7,13.4-2.7,13.4s-1.2,5.7-1.9,9.4
			l-15.6-1.8c-0.4-5.7-4.5-33.9-4.5-37.5c0-3.8,0-18.4,0-18.4L76.5,174.2z"/>
		<path class="st0" d="M89.7,169.3c0,0,1.2-14.9,1.3-16.6c0.1-1.7,2.2-8.2,2.2-11.7s-0.7-6-0.7-6s-0.5-1.3-0.9-2.7l-13,2.9
			c-0.3,2.1-0.6,4.5-0.4,6.1c0.3,3,4.8,25.1,4.8,25.8L89.7,169.3z"/>
		<path class="st0" d="M83,167.2c0,0.8-1.1,1.7-1.3,2.4s-1.5,4.3-1.5,5.3s0.5,1.2,0.4,2.2c0,1-1.7,5.2-1.6,6c0,0.8,1.2,2.5,1.6,1.9
			c0.3-0.5,2.3-7.7,2.8-7.6c0.5,0.1,1,0.9,1,1.5s0.2,3.8,0,4.4c-0.2,0.7-5,5.7-5.3,6c-0.3,0.4-0.9,4.8-0.5,4.9s8.5-6.7,8.6-7
			s0-0.8,0-1.1s2.5-3,2.6-3.4c0-0.5,0-13.3,0-13.3L83,167.2z"/>
		<path class="st0" d="M78.6,135.3c0.3-1.9,0.6-3.5,0.6-4.1c0-1.2-2.7-7.9-2.7-10.2c0-1.5-0.4-9.8-0.7-15.1l13.6-7.4
			c0,3.4,2.2,14.2,2.2,18.8s-0.7,10.9-0.7,12.2c0,0.6,0.3,1.8,0.7,2.9L78.6,135.3z"/>
		<path class="st0" d="M89.4,98.4l-13.6,7.4c-0.1-2.7-0.3-4.7-0.3-4.7L61.1,68.4c0.1,0.7,12,6,12.8,6.8c0.5,0.4,2.3,0.5,7.3,1.8
			s8.6,9.6,8.6,12.5S89.4,95.1,89.4,98.4"/>
		<path class="st0" d="M39.9,68.4c0.1-0.7,0.7-8.7,0.5-9.2c-0.2-0.5-1.5-2.9-2.1-5s-0.6-5.7-0.8-6.1c-0.1-0.3-1.8-0.4-2.2-0.9
			c-1.3-2.6-0.8-5.8-0.1-7.8c0.3-0.5,0.8-0.6,1.4-0.6c0.3,0.1,0.6,0.3,0.9,0.4c0,0,0.1-6,0.9-8.6c0.8-2.6,1.4-7.3,12-7.3
			s11.3,4.7,12,7.3c0.8,2.6,0.9,8.6,0.9,8.6c0.3-0.1,0.6-0.3,0.9-0.4c0.6,0,1,0.2,1.4,0.6c0.7,2,1.2,5.2,0.1,7.8
			c-0.5,0.5-2.1,0.7-2.2,0.9c-0.2,0.5-0.2,4-0.8,6.1c-0.6,2.1-1.9,4.5-2.1,5c-0.2,0.5,0.4,8.5,0.5,9.2H39.9z"/>
		<path class="st1" d="M50.5,94.1c-0.7-1.6-4.2-3.9-6.2-0.9c-1.3,2.6-0.8,6.3,6.2,11.8c7-5.5,7.5-9.2,6.2-11.8
			C54.6,90.2,51.2,92.5,50.5,94.1z"/>
	</g>
	<text transform="matrix(1 0 0 1 100.3224 42.0535)" class="st2 st3">Steps</text>
	<g>
		<path class="st4" d="M57.7,18.3H25.5l2.3,6.3l-17.1-6.3H2.9C1.3,18.3,0,17,0,15.4V2.9C0,1.3,1.3,0,2.9,0h54.8
			c1.6,0,2.9,1.3,2.9,2.9v12.5C60.5,17,59.3,18.3,57.7,18.3z"/>
	</g>
	<text transform="matrix(1 0 0 1 8.9741 13.4772)" class="st5 st2 st6">120 BPM</text>
	<text transform="matrix(1 0 0 1 100.2596 85.2538)"><tspan x="0" y="0" class="st5 st2 st3">VR games played</tspan><tspan x="0" y="14.4" class="st5 st2 st3">Longbow </tspan><tspan x="56.7" y="14.4" class="st5 st7 st3">16:52</tspan><tspan x="0" y="57.6" class="st5 st2 st3">Workout intensity</tspan><tspan x="0" y="72" class="st5 st7 st3">Vigorous activity - 0:00</tspan><tspan x="0" y="86.4" class="st5 st7 st3">Moderate activity - 15:04</tspan><tspan x="0" y="129.6" class="st5 st2 st3">VR games gave you</tspan><tspan x="0" y="144" class="st5 st2 st3">15:04</tspan><tspan x="0" y="158.4" class="st5 st7 st3">towards the recommended</tspan><tspan x="0" y="172.8" class="st5 st7 st3">goal of 30 active minutes</tspan><tspan x="0" y="187.2" class="st5 st7 st3">per day</tspan></text>
</g>
<g id="Layer_2">
</g>
</svg>
