<?xml version="1.0" encoding="utf-8"?>
<!-- Generator: Adobe Illustrator 21.0.2, SVG Export Plug-In . SVG Version: 6.00 Build 0)  -->
<svg version="1.1" id="Layer_1" xmlns="http://www.w3.org/2000/svg" xmlns:xlink="http://www.w3.org/1999/xlink" x="0px" y="0px"
	 viewBox="0 0 50 50" style="enable-background:new 0 0 50 50;" xml:space="preserve">
<style type="text/css">
	.st0{fill:#FFFFFF;stroke:#000000;stroke-width:0.5;stroke-miterlimit:10;}
</style>
<path class="st0" d="M16.8,38.4c-0.4-2.2-0.1-5.4,1.4-7.3c1.5-1.9,4.7-2.7,4.7-4.7s-0.7-5.6-4.7-5.4c-3.6,0.2-6.4,3.8-6.8,5.4
	c-0.4,1.7,1.8,6.8,1.9,10.5c0,3.7-0.6,6.7-0.5,8.5c0,1.8,1.8,3.7,4.1,3.7s3.5-0.9,3.5-3S17.2,40.6,16.8,38.4z"/>
<ellipse class="st0" cx="10.3" cy="23.4" rx="0.9" ry="1.2"/>
<ellipse class="st0" cx="12.6" cy="20.9" rx="1.3" ry="1.9"/>
<ellipse class="st0" cx="15.5" cy="18.7" rx="1.2" ry="2.2"/>
<ellipse class="st0" cx="19" cy="17.4" rx="1.6" ry="2.3"/>
<ellipse class="st0" cx="23.6" cy="19.2" rx="2.2" ry="3.7"/>
<path class="st0" d="M30.8,26.2c0.9-2,1.4-5.2,0.5-7.4c-0.9-2.2-4-3.7-3.5-5.8s2-5.3,5.9-4.1c3.4,1,5.3,5.2,5.3,6.9
	c0,1.7-3.4,6.2-4.4,9.7c-0.9,3.5-1.1,6.7-1.5,8.4c-0.5,1.8-2.6,3.1-4.9,2.6s-3.1-1.7-2.6-3.7S29.9,28.3,30.8,26.2z"/>
<ellipse transform="matrix(0.2419 -0.9703 0.9703 0.2419 17.984 49.4948)" class="st0" cx="40.7" cy="13.2" rx="1.2" ry="0.9"/>
<ellipse transform="matrix(0.2419 -0.9703 0.9703 0.2419 19.716 45.7205)" class="st0" cx="39.1" cy="10.2" rx="1.9" ry="1.3"/>
<ellipse transform="matrix(0.2419 -0.9703 0.9703 0.2419 20.6907 41.381)" class="st0" cx="36.8" cy="7.4" rx="2.2" ry="1.2"/>
<ellipse transform="matrix(0.2419 -0.9703 0.9703 0.2419 20.4592 36.7203)" class="st0" cx="33.7" cy="5.3" rx="2.3" ry="1.6"/>
<ellipse transform="matrix(0.2419 -0.9703 0.9703 0.2419 16.1217 32.4094)" class="st0" cx="28.8" cy="5.9" rx="3.7" ry="2.2"/>
</svg>
