<?xml version="1.0" encoding="utf-8"?>
<!-- Generator: Adobe Illustrator 21.0.2, SVG Export Plug-In . SVG Version: 6.00 Build 0)  -->
<svg version="1.1" id="Layer_1" xmlns="http://www.w3.org/2000/svg" xmlns:xlink="http://www.w3.org/1999/xlink" x="0px" y="0px"
	 viewBox="0 0 378 219" style="enable-background:new 0 0 378 219;" xml:space="preserve">
<style type="text/css">
	.st0{stroke:#FFFFFF;stroke-width:2;stroke-miterlimit:10;}
	.st1{stroke:#FFFFFF;stroke-width:3;stroke-miterlimit:10;}
	.st2{fill:#FFFFFF;stroke:#000000;stroke-miterlimit:10;}
</style>
<g>
	<path class="st0" d="M325.6,164.5c0,6.8-4.5,12.7-11.1,14.6c-31.2,8.7-118.4,32.9-125.5,35.3c-8.8,2.9-26.6,0.2-26.6,0.2
		c2.5-10.1,14.1-26.3,14.1-36.7l-0.3-145.9C176.1,26.8,165,4,165,4l149.3,23.5c6.5,1,11.3,6.6,11.3,13.2V164.5z"/>
	<path class="st1" d="M366.2,117.2l-56.4,4.7c-4,0.3-7.4-2.8-7.4-6.8V83.8c0-3.9,3.2-7,7.1-6.8l56.4,2.4c3.7,0.2,6.5,3.2,6.5,6.8
		v24.3C372.5,114,369.8,116.9,366.2,117.2z"/>
	<path class="st0" d="M23,177l35.6,9.6c3,0.8,6-0.9,6.8-3.9l9.3-33.8c0.5-1.7,2.1-2.9,3.9-2.7l7.7,0.8c2,0.2,3.6,1.7,4.1,3.6
		l10.4,43.9c0.6,2.3,2.3,4.2,4.6,4.8l53.6,14.5c15.1,4.1,29.9-7.3,29.9-22.9V27.7c0-15.2-14.1-26.5-29-23.1L23.9,35.8
		c-10.8,2.5-18.4,12-18.4,23.1v95.3C5.5,164.9,12.7,174.3,23,177z"/>
	<path class="st2" d="M168.7,98.2c0,23.8-16.8,41.7-35.9,40.1c-17.5-1.5-30.7-19.1-30.7-39.4s13.2-38.2,30.7-40.1
		C151.9,56.9,168.7,74.4,168.7,98.2z"/>
	<path class="st2" d="M63.6,99.3c0,18.4-12.5,32.2-26.8,31c-13.1-1.1-23-14.7-23-30.5s9.9-29.6,23-31C51.1,67.4,63.6,80.9,63.6,99.3
		z"/>
</g>
</svg>
